<?xml version="1.0" encoding="UTF-8"?>
<svg width="49px" height="51px" viewBox="0 0 49 51" version="1.1" xmlns="http://www.w3.org/2000/svg" xmlns:xlink="http://www.w3.org/1999/xlink">
    <!-- Generator: Sketch 53.2 (72643) - https://sketchapp.com -->
    <title>transaction</title>
    <desc>Created with Sketch.</desc>
    <defs>
        <path d="M17.1467546,17.2836613 C16.398856,17.4827701 15.6301091,17.041791 15.4297103,16.2987068 C15.2293115,15.5556226 15.6731477,14.7918243 16.4210463,14.5927155 L46.4599894,6.59561772 C47.9557865,6.19740013 49.4932803,7.07935844 49.894078,8.56552675 L51.7851494,15.5776701 C51.9855482,16.3207542 51.541712,17.0845525 50.7938134,17.2836613 C50.0459148,17.4827701 49.2771679,17.041791 49.0767691,16.2987068 L47.1856977,9.2865635 L17.1467546,17.2836613 Z M56.3333333,36.8322289 L49.3235294,36.8322289 C48.5492479,36.8322289 47.9215686,37.4558676 47.9215686,38.2251649 C47.9215686,38.9944623 48.5492479,39.618101 49.3235294,39.618101 L56.3333333,39.618101 L56.3333333,54.9403973 C56.3333333,55.7096946 55.7056541,56.3333333 54.9313725,56.3333333 L10.0686275,56.3333333 C9.29434589,56.3333333 8.66666667,55.7096946 8.66666667,54.9403973 L8.66666667,21.5099326 C8.66666667,20.7406352 9.29434589,20.1169965 10.0686275,20.1169965 L54.9313725,20.1169965 C55.7056541,20.1169965 56.3333333,20.7406352 56.3333333,21.5099326 L56.3333333,36.8322289 Z M31.0980392,28.4746127 L31.0980392,39.618101 C31.0980392,40.3873983 31.7257184,41.011037 32.5,41.011037 C33.2742816,41.011037 33.9019608,40.3873983 33.9019608,39.618101 L33.9019608,28.4746127 C33.9019608,27.7053154 33.2742816,27.0816767 32.5,27.0816767 C31.7257184,27.0816767 31.0980392,27.7053154 31.0980392,28.4746127 Z M31.0980392,45.1898451 L31.0980392,46.1403247 C31.0980392,46.9096221 31.7257184,47.5332608 32.5,47.5332608 C33.2742816,47.5332608 33.9019608,46.9096221 33.9019608,46.1403247 L33.9019608,45.1898451 C33.9019608,44.4205478 33.2742816,43.7969091 32.5,43.7969091 C31.7257184,43.7969091 31.0980392,44.4205478 31.0980392,45.1898451 Z" id="path-1"></path>
    </defs>
    <g id="Screens" stroke="none" stroke-width="1" fill="none" fill-rule="evenodd">
        <g id="Wallet-empty-state" transform="translate(-164.000000, -512.000000)">
            <g id="ICONS/transaction" transform="translate(156.000000, 506.000000)">
                <mask id="mask-2" fill="white">
                    <use xlink:href="#path-1"></use>
                </mask>
                <use id="Combined-Shape" fill="#212C68" fill-rule="nonzero" xlink:href="#path-1"></use>
                <g id="color-light-blue" mask="url(#mask-2)" fill="#CACDDF" fill-rule="evenodd" opacity="0.970000029">
                    <rect id="color" x="0" y="0" width="65" height="65"></rect>
                </g>
            </g>
        </g>
    </g>
</svg>